<svg xmlns="http://www.w3.org/2000/svg" viewBox="0 0 627 894" fill="none" xmlns:v="https://vecta.io/nano"><path fill-rule="evenodd" d="M445.433 22.983c7.289 9.049 11.006 21.26 18.44 45.682l162.408 533.511c-60.047-31.15-125.324-53.616-194.166-65.737l-105.744-357.34c-1.73-5.847-7.101-9.858-13.198-9.858-6.113 0-11.493 4.032-13.21 9.899L195.5 536.259A675.82 675.82 0 0 0 .459 602.095L163.664 68.541c7.457-24.379 11.186-36.569 18.476-45.602 6.435-7.974 14.806-14.167 24.314-17.989C217.224.622 229.971.622 255.466.622h116.568c25.528 0 38.292 0 49.072 4.338 9.516 3.83 17.892 10.035 24.327 18.024z" fill="#000"/><path fill-rule="evenodd" d="M464.867 627.566c-26.773 22.894-80.212 38.507-141.766 38.507-75.55 0-138.872-23.52-155.675-55.152-6.007 18.129-7.354 38.877-7.354 52.131 0 0-3.958 65.082 41.308 110.349 0-23.505 19.055-42.559 42.559-42.559 40.287 0 40.242 35.148 40.205 63.664l-.002 2.545c0 43.282 26.453 80.385 64.073 96.024-5.619-11.557-8.771-24.535-8.771-38.25 0-41.28 24.235-56.65 52.401-74.514 22.41-14.213 47.31-30.004 64.47-61.682 8.953-16.528 14.037-35.459 14.037-55.577 0-12.372-1.922-24.295-5.485-35.486z" fill="#ff5d01"/></svg>